<?xml version="1.0" encoding="utf-8"?>
<!-- Generator: Adobe Illustrator 27.0.0, SVG Export Plug-In . SVG Version: 6.00 Build 0)  -->
<svg version="1.1" id="Ebene_1" xmlns="http://www.w3.org/2000/svg" xmlns:xlink="http://www.w3.org/1999/xlink" x="0px" y="0px"
	 viewBox="0 0 447.5 447.5" style="enable-background:new 0 0 447.5 447.5;" xml:space="preserve">
<style type="text/css">
	.st0{fill:none;stroke:#F6F2E6;stroke-width:7.44;stroke-miterlimit:10;}
	.st1{fill:none;stroke:#F6F2E6;stroke-width:7.44;stroke-linecap:round;stroke-linejoin:round;}
	.st2{fill:#ECEBE3;}
</style>
<path class="st0" d="M32,310.9c-10.1-24-14.7-49.9-17.6-75.7c-2.3-20.4-3.5-41.3,1-61.3c3.6-15.9,10.7-30.7,18.8-44.8
	c8-14,17.2-27.4,28.1-39.2c22.4-24.2,51.6-40.8,81.5-54.7c11.3-5.3,22.8-10.2,35.1-12.6c15.2-3,30.8-1.9,46.2-0.8
	c28.1,2,57.2,4.4,82.1,17.6c10.6,5.6,20,13,29.3,20.6c22.7,18.6,44.6,38.6,61,62.9c36.9,54.5,41.8,128.6,14,188.3
	c-27.8,59.7-86.8,103.3-151.7,114.1c-35.2,5.9-71.8,2.2-105.4-9.5c-33.7-11.7-60.7-31.5-87.2-54.6C51.6,347.7,40,329.9,32,310.9
	L32,310.9z"/>
<path class="st1" d="M199.9,175.1c-7.1,25.6-11,51.9-14.8,78.2c-0.4,2.8-0.7,5.8,0.9,8.1c1.8,2.6,5.4,3,8.6,3.1
	c12.7,0.4,25.4-1.6,37.4-5.6"/>
<path class="st1" d="M171.6,317.8c11.4,6.2,25.1,5.9,38,5.4c21.9-0.9,45-2.4,63-14.9"/>
<path class="st2" d="M139.4,178.4c0.5-1.1,1.4-2,2.5-2.5c1.1-0.4,2.5-0.3,3.4,0.4c1,0.9,1.4,2.3,1.5,3.6c0.2,1.4,0.2,2.9-0.6,4
	c-0.8,1.3-2.6,1.9-4.1,1.4s-2.6-1.8-2.8-3.4c-0.2-1.5,0.4-3.1,1.5-4.2"/>
<path class="st2" d="M277.8,181.4c0.5,0.9,0,2.2-1,2.7s-2,0.6-3.1,0.6c-0.4,0-0.8,0-1.1-0.1c-0.5-0.1-0.9-0.4-1.2-0.8
	c-1.2-1.2-1.8-3-1.3-4.6s2.3-2.8,3.9-2.4c2.1,0.4,3.1,2.8,3.5,4.8"/>
</svg>
