<?xml version="1.0" encoding="UTF-8" standalone="no"?>
<!DOCTYPE svg PUBLIC "-//W3C//DTD SVG 1.1//EN" "http://www.w3.org/Graphics/SVG/1.1/DTD/svg11.dtd">
<svg width="100%" height="100%" viewBox="0 0 448 448" version="1.1" xmlns="http://www.w3.org/2000/svg" xmlns:xlink="http://www.w3.org/1999/xlink" xml:space="preserve" xmlns:serif="http://www.serif.com/" style="fill-rule:evenodd;clip-rule:evenodd;stroke-miterlimit:10;">
    <path d="M32,310.9C21.9,286.9 17.3,261 14.4,235.2C12.1,214.8 10.9,193.9 15.4,173.9C19,158 26.1,143.2 34.2,129.1C42.2,115.1 51.4,101.7 62.3,89.9C84.7,65.7 113.9,49.1 143.8,35.2C155.1,29.9 166.6,25 178.9,22.6C194.1,19.6 209.7,20.7 225.1,21.8C253.2,23.8 282.3,26.2 307.2,39.4C317.8,45 327.2,52.4 336.5,60C359.2,78.6 381.1,98.6 397.5,122.9C434.4,177.4 439.3,251.5 411.5,311.2C383.7,370.9 324.7,414.5 259.8,425.3C224.6,431.2 188,427.5 154.4,415.8C120.7,404.1 93.7,384.3 67.2,361.2C51.6,347.7 40,329.9 32,310.9Z" style="fill:white;fill-rule:nonzero;stroke:black;stroke-width:7.44px;"/>
    <path d="M199.9,175.1C192.8,200.7 188.9,227 185.1,253.3C184.7,256.1 184.4,259.1 186,261.4C187.8,264 191.4,264.4 194.6,264.5C207.3,264.9 220,262.9 232,258.9" style="fill:white;fill-rule:nonzero;stroke:black;stroke-width:7.44px;stroke-linecap:round;stroke-linejoin:round;stroke-miterlimit:4;"/>
    <path d="M171.6,317.8C183,324 196.7,323.7 209.6,323.2C231.5,322.3 254.6,320.8 272.6,308.3" style="fill:white;fill-rule:nonzero;stroke:black;stroke-width:7.44px;stroke-linecap:round;stroke-linejoin:round;stroke-miterlimit:4;"/>
    <path d="M139.4,178.4C139.9,177.3 140.8,176.4 141.9,175.9C143,175.5 144.4,175.6 145.3,176.3C146.3,177.2 146.7,178.6 146.8,179.9C147,181.3 147,182.8 146.2,183.9C145.4,185.2 143.6,185.8 142.1,185.3C140.6,184.8 139.5,183.5 139.3,181.9C139.1,180.4 139.7,178.8 140.8,177.7" style="fill-rule:nonzero;"/>
    <path d="M277.8,181.4C278.3,182.3 277.8,183.6 276.8,184.1C275.8,184.6 274.8,184.7 273.7,184.7C273.3,184.7 272.9,184.7 272.6,184.6C272.1,184.5 271.7,184.2 271.4,183.8C270.2,182.6 269.6,180.8 270.1,179.2C270.6,177.6 272.4,176.4 274,176.8C276.1,177.2 277.1,179.6 277.5,181.6" style="fill-rule:nonzero;"/>
</svg>
